# xmcd
#
# Track frame offsets:
#	183
#	10440
#	22110
#	34605
#	49168
#	63625
#	79393
#	94583
#	106615
#	123318
#	137593
#	153743
#	170465
#	183828
#	197955
#	213180
#	228005
#	244013
#	259183
#
# Disc length: 3664 seconds
#
# Revision: 2
# Processed by: cddbd v1.5.2PL0 Copyright (c) Steve Scherf et al.
# Submitted via: audiograbber 1.83.01
#
DISCID=fd0e4e13
DTITLE=Engelbert Humperdinck - 19 Golden Love Songs
DYEAR=1900
DGENRE=Easy Listening
TTITLE0=Raindrops Keep Falling On My Head
TTITLE1=Help Me Make It Though The Night
TTITLE2=My Love
TTITLE3=I'm Stone In Love With You
TTITLE4=The Most Beautiful Girl
TTITLE5=And I Love You So
TTITLE6=Love Me With All Your Heart
TTITLE7=Talk It Over In The Morning
TTITLE8=Leaving On A Jet Plane
TTITLE9=Who's That Look In Your Eye
TTITLE10=Perfect Love
TTITLE11=Til You And Your Lover Are Lovers Again
TTITLE12=What Will I Write
TTITLE13=Yellow Moon
TTITLE14=I Don't Know How To Say Goodbye
TTITLE15=Beautifull Baby
TTITLE16=Patiently Waiting
TTITLE17=You Look Good On Me
TTITLE18=Two Lovers
EXTD=
EXTT0=
EXTT1=
EXTT2=
EXTT3=
EXTT4=
EXTT5=
EXTT6=
EXTT7=
EXTT8=
EXTT9=
EXTT10=
EXTT11=
EXTT12=
EXTT13=
EXTT14=
EXTT15=
EXTT16=
EXTT17=
EXTT18=
PLAYORDER=
